<svg width="40" height="21" viewBox="0 0 40 21" fill="none" xmlns="http://www.w3.org/2000/svg">
<rect x="0.847412" y="0.493164" width="38.25" height="20" rx="6" fill="#319A8D"/>
<path d="M13.5626 7.22044V14.4932H12.2345L9.07042 9.91575H9.01716V14.4932H7.47951V7.22044H8.82895L11.9682 11.7943H12.0321V7.22044H13.5626ZM15.833 14.4932V7.22044H20.7336V8.48819H17.3707V10.2211H20.4815V11.4889H17.3707V13.2254H20.7478V14.4932H15.833ZM24.5932 14.4932L22.5122 7.22044H24.1919L25.3957 12.2737H25.4561L26.7842 7.22044H28.2224L29.547 12.2844H29.6109L30.8147 7.22044H32.4944L30.4135 14.4932H28.9149L27.5299 9.73819H27.4731L26.0917 14.4932H24.5932Z" fill="#F7F7F8"/>
</svg>
