<svg width="29" height="29" viewBox="0 0 29 29" fill="none" xmlns="http://www.w3.org/2000/svg">
<mask id="mask0_243_33" style="mask-type:luminance" maskUnits="userSpaceOnUse" x="3" y="2" width="24" height="25">
<path d="M26.484 2.82666H3.15063V26.16H26.484V2.82666Z" fill="white"/>
</mask>
<g mask="url(#mask0_243_33)">
<path d="M14.8173 26.16C21.2606 26.16 26.484 20.9366 26.484 14.4933C26.484 8.05 21.2606 2.82666 14.8173 2.82666C8.37398 2.82666 3.15063 8.05 3.15063 14.4933C3.15063 20.9366 8.37398 26.16 14.8173 26.16Z" fill="#FAF7FE"/>
<path d="M18.1912 17.0122L21.492 15.1062C21.6668 15.0053 21.775 14.8176 21.775 14.6156V10.8042C21.775 10.6027 21.6664 10.4145 21.492 10.3135L18.1912 8.4076C18.0165 8.30661 17.7997 8.30708 17.6249 8.4076L14.3242 10.3135C14.1493 10.4145 14.0412 10.6027 14.0412 10.8042V17.6157L11.7265 18.9519L9.41186 17.6157V14.9429L11.7265 13.6067L13.2533 14.4879V12.6948L12.0095 11.977C11.9237 11.9275 11.8256 11.9013 11.726 11.9013C11.6265 11.9013 11.5283 11.9275 11.4431 11.977L8.14234 13.883C7.96751 13.9839 7.85938 14.1716 7.85938 14.3736V18.1849C7.85938 18.3865 7.96799 18.5746 8.14234 18.6756L11.4431 20.5816C11.6174 20.6821 11.8347 20.6821 12.0095 20.5816L15.3103 18.6761C15.485 18.5752 15.5932 18.387 15.5932 18.1855V11.3739L15.6351 11.3501L17.9078 10.0377L20.2225 11.3739V14.0468L17.9078 15.3831L16.3835 14.5027V16.2958L17.6249 17.0127C17.7997 17.1131 18.0165 17.1127 18.1912 17.0122Z" fill="url(#paint0_linear_243_33)"/>
</g>
<defs>
<linearGradient id="paint0_linear_243_33" x1="9.04172" y1="18.7056" x2="21.0023" y2="9.98437" gradientUnits="userSpaceOnUse">
<stop stop-color="#A726C1"/>
<stop offset="0.88" stop-color="#803BDF"/>
<stop offset="1" stop-color="#7B3FE4"/>
</linearGradient>
</defs>
</svg>
