<svg width="29" height="29" viewBox="0 0 29 29" fill="none" xmlns="http://www.w3.org/2000/svg">
<g id="zkEVM.svg">
<g id="Clip path group">
<mask id="mask0_243_44" style="mask-type:luminance" maskUnits="userSpaceOnUse" x="3" y="2" width="24" height="25">
<g id="clip0_6937_160305">
<path id="Vector" d="M26.5938 2.82666H3.2605V26.16H26.5938V2.82666Z" fill="white"/>
</g>
</mask>
<g mask="url(#mask0_243_44)">
<g id="Group">
<g id="Mask group">
<mask id="mask1_243_44" style="mask-type:luminance" maskUnits="userSpaceOnUse" x="3" y="3" width="24" height="23">
<g id="Group_2">
<path id="Vector_2" d="M14.9267 25.9217C21.2388 25.9217 26.3558 20.8047 26.3558 14.4926C26.3558 8.18048 21.2388 3.06348 14.9267 3.06348C8.61456 3.06348 3.49756 8.18048 3.49756 14.4926C3.49756 20.8047 8.61456 25.9217 14.9267 25.9217Z" fill="white"/>
</g>
</mask>
<g mask="url(#mask1_243_44)">
<g id="Group_3">
<path id="Vector_3" d="M27.438 1.979H2.41528V27.0016H27.438V1.979Z" fill="url(#paint0_linear_243_44)"/>
</g>
</g>
</g>
<path id="Vector_4" d="M18.2321 16.9629L21.4656 15.0958C21.6369 14.9969 21.7428 14.813 21.7428 14.6151V10.8813C21.7428 10.6839 21.6364 10.4996 21.4656 10.4006L18.2321 8.5335C18.0608 8.43456 17.8485 8.43503 17.6772 8.5335L14.4437 10.4006C14.2724 10.4996 14.1665 10.6839 14.1665 10.8813V17.5542L11.899 18.8632L9.63146 17.5542V14.9357L11.899 13.6267L13.3946 14.4901V12.7335L12.1762 12.0302C12.0922 11.9817 11.9961 11.956 11.8985 11.956C11.801 11.956 11.7049 11.9817 11.6213 12.0302L8.3878 13.8974C8.21653 13.9963 8.1106 14.1802 8.1106 14.3781V18.1119C8.1106 18.3093 8.217 18.4936 8.3878 18.5925L11.6213 20.4597C11.7921 20.5581 12.0049 20.5581 12.1762 20.4597L15.4097 18.593C15.581 18.4941 15.6869 18.3097 15.6869 18.1123V11.4394L15.728 11.4161L17.9544 10.1304L20.222 11.4394V14.0579L17.9544 15.3669L16.4611 14.5045V16.2611L17.6772 16.9634C17.8485 17.0619 18.0608 17.0614 18.2321 16.9629Z" fill="white"/>
</g>
</g>
</g>
</g>
<defs>
<linearGradient id="paint0_linear_243_44" x1="-2.15757" y1="4.0356" x2="23.6743" y2="19.8434" gradientUnits="userSpaceOnUse">
<stop stop-color="#A229C5"/>
<stop offset="1" stop-color="#7B3FE4"/>
</linearGradient>
</defs>
</svg>
